<?xml version="1.0" encoding="UTF-8" standalone="no"?>
<svg xmlns="http://www.w3.org/2000/svg" width="700" height="700" viewBox="0 0 700 700">
  <path d="M432.8 27.5c-.2.2-5 .6-10.8 1-5.8.3-12.1.8-14 1-1.9.2-6.9.7-11 1-4.1.3-9.5.8-12 1-2.5.2-8.3.6-13 1-4.7.4-10.1.8-12 1-1.9.2-7.5.6-12.5.9-4.9.4-11 .8-13.5 1.1-4.2.4-7.6.7-24 2-25.5 2-44 3.5-50.5 4.1-7.5.7-14 1.2-24.5 1.9-5.2.3-11.1.8-13 1-1.9.2-6.9.7-11 1-4.1.4-9.1.8-11 1-9.3.9-21.1 7.8-27.7 16.1-8.2 10.4-10.4 19.2-9.8 38.4.3 8 .7 16.5 1 19 .2 2.5.7 9.2 1 15 .3 5.8.8 13.6 1 17.5.2 3.8.7 11 .9 16 1.5 24.4 1.7 28.3 2.1 32.5.2 2.5.6 10.3 1 17.5.3 7.1.8 15.2 1 18 .2 2.7.7 10.2 1.1 16.5.3 6.3.9 11.8 1.2 12.2.4.4 3.4 1 6.7 1.4 3.3.3 10.1 1.6 15.2 2.9l9.2 2.2-.4-5.6c-.5-6.8-1.4-21.7-2-33.1-.5-9.5-1.3-22.2-2-32-.2-3.6-.7-11-1-16.5-.3-5.5-.7-13.4-1-17.5-.3-4.1-.7-11.8-1-17-.3-5.2-.8-12-1-15-1-13.3-1.9-31.2-1.9-39.5-.1-7.8.2-9.5 2.2-12.8 3.2-5.1 6.2-6.4 16.2-7.2 4.7-.4 10.5-.8 13-1 2.5-.2 7.9-.7 12-1 4.1-.3 9.5-.8 12-1 2.5-.2 8.1-.6 12.5-1 4.4-.3 10.5-.7 13.5-1 3-.2 8.9-.7 13-1 4.1-.3 9.5-.8 12-1 2.5-.3 7.9-.7 12-1 4.1-.3 9.5-.8 12-1 2.5-.2 8.3-.6 13-1 4.7-.3 10.1-.8 12-1 1.9-.2 7.6-.7 12.5-1 5-.3 10.6-.8 12.5-1 1.9-.2 7.3-.7 12-1 4.7-.3 10.5-.8 13-1 2.5-.2 8.3-.6 13-1 4.7-.3 10.1-.8 12-1 1.9-.2 7.4-.7 12.1-1 8.3-.7 8.6-.6 11.8 2.1 4.1 3.4 5.1 6 5.6 14.8.3 3.9.7 10.5 1 14.6.3 4.1.8 11.8 1.1 17 .3 5.2.7 12.2.9 15.5.2 3.3.7 11.1 1 17.3.6 10.6 1.1 15.2 1.7 15.7.2.1 7.4 4.6 16.1 9.9l15.9 9.7-.6-5.8c-.3-3.2-.8-11-1.2-17.3-.3-6.3-.8-14-.9-17-.2-3-.6-10.7-1-17-.3-6.3-.7-13.8-1-16.5-.2-2.8-.7-10.9-1-18-.9-18.7-1.6-22.5-5.4-30.9-5.1-11.4-16.2-20.5-28.4-23.5-4.1-1-18-1.4-18.9-.6z M340.1 127.9c-8 3.2-11.3 7.2-28.7 34.3-9.3 14.5-19.1 29.8-21.9 34-2.7 4.3-9 14.1-14 21.8-4.9 7.7-11.8 18.4-15.3 23.8-13.2 20.5-18.7 29-23.9 37-2.9 4.5-5.3 8.6-5.3 9 0 .4 1.5 1.6 3.3 2.6 7.3 4.2 18.8 13.5 27.7 22.5 9 9.1 21 23.9 21 25.9 0 .5.7 1.5 1.5 2.2.8.7 2.1 2.4 2.8 3.9.8 1.4 3.4 6.4 5.9 11.1 7.6 14.3 16 38 18.3 51.6.4 2.2.8 4.6 1 5.4.2.8.4 2 .4 2.6.1 1.3 73.8 1.7 74.6.5.2-.4.7-2.2 1-3.9.3-1.8.7-4.6 1-6.4.3-1.7.7-3.4.9-3.7.2-.3.7-2.2 1-4.2.9-6.1 8.3-27 12.5-35.7 2.3-4.5 4.1-8.5 4.1-8.7 0-1.5 10.6-17.6 17.2-26.1 22.5-29 51.7-47.7 86-55.1 6.5-1.4 12.4-1.8 26.8-1.7 16.2.1 19.7.4 27.8 2.6 5.1 1.3 9.5 2.2 9.7 1.8.7-1.1-4.2-11.9-7-15.6-3.6-4.7-2.2-3.8-45.5-30.3-1.3-.8-35.6-22.1-63.5-39.4-4.4-2.8-12.8-8-18.7-11.6-5.9-3.6-25.2-15.6-42.9-26.6-17.7-11-34.2-21.1-36.8-22.4-5.9-3.2-14.8-3.6-21-1.2zM155.7 299.6c-.1.1-2.4.5-5.2.8-8.4 1.1-10.2 1.5-18.7 4.2-19.8 6.3-40.2 20.5-55.1 38.5-5.1 6.2-13.4 19.3-14.7 23.3-2.4 7.5.8 14.9 8 18.6 8.4 4.3 15 1.4 21.4-9.1 10.4-17.1 23.2-29.3 39.1-37.2 9.8-4.9 16.5-6.7 27.5-7.4 26.7-1.6 52.5 12 70.5 37.2 8.4 11.8 15.7 27.2 19 40.2 1.3 5.1 2.4 7.3 3.4 7.4 2.3.1 25.2.1 27.9 0 1.8-.1 2.2-.7 2.2-3.4 0-7.4-6.6-26.9-14.1-41.7-20.3-40-52.9-65.1-91.4-70.7-3.5-.5-19.4-1-19.8-.7z M532.7 299.6c-.1.1-3.1.4-6.7.7-3.6.4-7.4.8-8.5 1.1-46.7 10-83.6 49.3-97.5 103.8-3.2 12.3-4.4 11.3 13.5 11.3l15.5.1 3.1-10.1c20.6-66.6 78.4-94.4 127.6-61.4 7.3 4.8 19.1 17.3 26.1 27.7 7 10.2 9.2 12.1 15.1 12.9 5.2.7 8.3-.1 12.1-3.4 5.1-4.2 6.7-10.2 4.5-16.6-2-5.7-11.5-19.3-20-28.5-22.7-24.3-49-36.7-79.8-37.6-2.7-.1-4.9-.1-5 0zm-335 142.8c-1.1 1.2-1.4 5.2-1.5 18.8 0 9.6.3 18.1.8 18.9.6.9 3.5 1.6 9.2 1.9 4.5.3 72.9.5 152 .5 135.5-.1 143.9-.2 145.6-1.8 1.5-1.5 1.7-4 1.8-19 0-13.8-.3-17.5-1.4-18.9-1.4-1.7-10.2-1.8-153.3-1.8-129.9 0-152 .2-153.2 1.4zm42.4 68.1c-1 1.6-3 5.2-4.6 8-6.6 11.8-19.6 26.1-30 33-17.9 11.9-39.1 16.2-57.6 11.7-8.2-2-11.6-1.9-16.1.4-3.4 1.8-7.7 8-8.2 12-.9 6.7 5 15.6 11.2 17 1.5.3 4.3 1 6.2 1.5 12.2 3 35.3 3 45.5-.1 24-7.2 37.4-14.9 53.1-30.5 8.5-8.5 11.4-12 18.8-22.8 4.6-6.8 12.4-22.1 15-29.4l1.4-3.9h-32.9l-1.8 3.1zm66.3-2.4c-.2.3-1.7 4.2-3.3 8.5-10.7 29-24.4 50.4-45 70.2-6.4 6.1-20.7 17.2-26.1 20.2-.8.5-1.3 1-1 1.3.3.2 11.1 7.5 24 16.3 12.9 8.7 30.9 20.9 40 27.1 9.1 6.2 18.8 12.7 21.5 14.3 15 9 34.4 9.5 51.1 1.4 10.2-5 17.1-12.4 31.1-33 6.6-9.9 14.4-21.3 17.2-25.4 2.8-4.1 5.6-8.2 6.1-9 .6-.8 3.7-5.5 7-10.3l6-8.8-6.4-7.7c-13.5-16.4-22.3-31.6-30.3-52.2l-5.2-13.5H350c-23.7-.1-43.3.2-43.6.6zm119.8-.3c-.7.2.2 3.3 2.4 8.4 22.5 52.7 69.8 84.6 117.9 79.5 16.7-1.7 23-4.1 26.8-10 5.7-8.8 1.9-20.2-7.9-23.4-3.5-1.2-5.4-1.1-14.1 1-10.4 2.5-27.1 1.7-36.8-1.8-14-4.9-24-11.6-35.3-23.4-6.2-6.4-18.1-23.3-18.2-25.8 0-.5-.7-1.7-1.6-2.8-1.3-1.8-2.7-2-16.8-2-8.4-.1-15.7 0-16.4.3z" />
</svg>
